<svg width="1440" height="1024" viewBox="0 0 1440 1024" fill="none" xmlns="http://www.w3.org/2000/svg">
<g clip-path="url(#clip0_1_3)">
<rect width="1440" height="1024" fill="white"/>
<path d="M1434.11 -14C1456.61 64.5 1477.01 136.3 1502.61 157.5M1364.11 -14C1385.61 72.5 1428.61 223.4 1502.61 301M1309.61 -14C1289.61 91.5 1391.01 322.4 1502.61 418M1258.61 -14C1187.61 146 1385.01 434.2 1502.61 507M1204.61 -14C1116.61 201.5 1357.11 507 1502.61 581.5M1147.61 -14C1088.96 92.2753 1143.52 256.852 1229.97 393.5C1315.98 529.44 1442.11 593.5 1502.61 633.5M1088.61 -14C1019.61 91.5 1088.61 301 1229.97 476C1290.85 530.5 1430.61 646.1 1502.61 672.5M1018.61 -14C945.115 117.5 1046.71 383 1223.11 527C1309.61 591 1502.61 706.6 1502.61 733M952.115 -14C934.448 23.8333 911.915 123.9 963.115 221.5C1027.11 343.5 1167.61 507 1185.61 527C1287.78 590 1497.31 733.3 1518.11 802.5M885.115 -21C872.115 20.3333 856.715 124.8 899.115 212C962.631 310.5 1108.85 515.7 1185.61 548.5C1248.11 595.5 1416.61 675.3 1380.61 802.5C1403.11 831 1495.01 809.3 1502.61 878.5M808.115 -14C806.781 46.3333 812.215 173.2 844.615 198C911.448 303.496 1077.01 527.891 1204.61 581.5C1268.11 604.253 1356.01 709.7 1309.61 802.5C1321.61 869 1560.41 899.7 1541.61 974.5M745.115 -44C734.615 20 761.715 179.4 808.115 237C915.448 355.389 1141.21 593.133 1185.61 597C1228.19 618.5 1276.61 680.5 1229.97 808.5C1265.61 902 1518.11 958.9 1518.11 1020.5M687.115 -44C681.115 -4.16667 684.315 131.8 745.115 237C844.615 375 1150.13 596.2 1185.61 657C1196.61 676.5 1198.42 712.795 1179.61 746C1147.61 802.5 1331.11 1034.5 1443.61 1031" stroke="url(#paint0_linear_1_3)" stroke-opacity="0.3"/>
</g>
<defs>
<linearGradient id="paint0_linear_1_3" x1="790.615" y1="844" x2="762.115" y2="-60.5" gradientUnits="userSpaceOnUse">
<stop stop-color="white"/>
<stop offset="0.385" stop-color="#E0DFDF"/>
<stop offset="1" stop-color="#353434"/>
</linearGradient>
<clipPath id="clip0_1_3">
<rect width="1440" height="1024" fill="white"/>
</clipPath>
</defs>
</svg>
